HIERARCHY
ROOT Hips
{
 OFFSET 0.000000 0.000000 0.000000
 CHANNELS 6 Xposition Yposition Zposition Yrotation Xrotation Zrotation
 JOINT Chest
 {
  OFFSET 0.000000 9.585900 0.002600
  CHANNELS 3 Yrotation Xrotation Zrotation
  JOINT Chest2
  {
   OFFSET 0.000000 9.601200 -0.005300
   CHANNELS 3 Yrotation Xrotation Zrotation
   JOINT Chest3
   {
    OFFSET 0.000000 9.561800 0.000000
    CHANNELS 3 Yrotation Xrotation Zrotation
    JOINT Chest4
    {
     OFFSET 0.000000 9.552100 0.000000
     CHANNELS 3 Yrotation Xrotation Zrotation
     JOINT Neck
     {
      OFFSET 0.000000 14.453000 0.000000
      CHANNELS 3 Yrotation Xrotation Zrotation
      JOINT Head
      {
       OFFSET 0.000000 8.936500 -0.011300
       CHANNELS 3 Yrotation Xrotation Zrotation
       End Site
       {
        OFFSET 0.000000 17.073600 -0.006000
       }
      }
     }
     JOINT RightCollar
     {
      OFFSET -2.921100 9.558500 0.000000
      CHANNELS 3 Yrotation Xrotation Zrotation
      JOINT RightShoulder
      {
       OFFSET -13.519700 0.000000 0.000000
       CHANNELS 3 Yrotation Xrotation Zrotation
       JOINT RightElbow
       {
        OFFSET 0.000000 -29.696600 0.000000
        CHANNELS 3 Yrotation Xrotation Zrotation
        JOINT RightWrist
        {
         OFFSET 0.000000 -24.004700 0.000000
         CHANNELS 3 Yrotation Xrotation Zrotation
         End Site
         {
          OFFSET 0.000000 -17.728500 0.000000
         }
        }
       }
      }
     }
     JOINT LeftCollar
     {
      OFFSET 2.921100 9.558500 0.000000
      CHANNELS 3 Yrotation Xrotation Zrotation
      JOINT LeftShoulder
      {
       OFFSET 13.519700 0.000000 0.000000
       CHANNELS 3 Yrotation Xrotation Zrotation
       JOINT LeftElbow
       {
        OFFSET 0.000000 -29.696600 0.000000
        CHANNELS 3 Yrotation Xrotation Zrotation
        JOINT LeftWrist
        {
         OFFSET 0.000000 -24.004700 0.000000
         CHANNELS 3 Yrotation Xrotation Zrotation
         End Site
         {
          OFFSET 0.000000 -17.728500 0.000000
         }
        }
       }
      }
     }
    }
   }
  }
 }
 JOINT RightHip
 {
  OFFSET -7.771700 -0.012900 -0.001300
  CHANNELS 3 Yrotation Xrotation Zrotation
  JOINT RightKnee
  {
   OFFSET 0.000000 -40.869800 0.001200
   CHANNELS 3 Yrotation Xrotation Zrotation
   JOINT RightAnkle
   {
    OFFSET 0.000000 -39.717900 0.002100
    CHANNELS 3 Yrotation Xrotation Zrotation
    JOINT RightToe
    {
     OFFSET 0.000000 -4.965400 11.033500
     CHANNELS 3 Yrotation Xrotation Zrotation
     End Site
     {
      OFFSET 0.000000 -1.423100 5.872300
     }
    }
   }
  }
 }
 JOINT LeftHip
 {
  OFFSET 7.771700 -0.012900 -0.001300
  CHANNELS 3 Yrotation Xrotation Zrotation
  JOINT LeftKnee
  {
   OFFSET 0.000000 -40.869800 0.001200
   CHANNELS 3 Yrotation Xrotation Zrotation
   JOINT LeftAnkle
   {
    OFFSET 0.000000 -39.717900 0.002100
    CHANNELS 3 Yrotation Xrotation Zrotation
    JOINT LeftToe
    {
     OFFSET 0.000000 -4.965400 11.033500
     CHANNELS 3 Yrotation Xrotation Zrotation
     End Site
     {
      OFFSET 0.000000 -1.423100 5.872300
     }
    }
   }
  }
 }
}
MOTION
Frames: 6
Frame Time: 0.008333
0.000000 85.388000 0.000000 0.000000 -5.767877 0.000000 0.000000 11.653817 0.000000 0.000000 -5.885947 0.000000 0.000000 -0.000000 0.000000 0.000000 -0.000000 0.000000 0.000000 12.528835 0.000000 0.000000 0.711642 0.000000 0.000000 -0.000000 0.000000 0.000000 0.000000 -90.000000 0.000000 -2.309062 0.000000 0.000000 2.309062 0.000000 0.000000 -0.000000 0.000000 0.000000 -0.000000 90.000000 0.000000 -2.309062 0.000000 0.000000 2.309062 0.000000 0.000000 8.520406 0.000000 0.000000 1.905762 0.000000 -0.000000 -4.658285 0.000000 0.000000 -0.000000 0.000000 0.000000 8.520406 0.000000 0.000000 1.905762 0.000000 -0.000000 -4.658285 0.000000 0.000000 -0.000000 0.000000
-103.739295 51.688856 -39.727595 177.530068 -19.246414 -0.053081 -2.159576 11.108175 1.059241 -0.150929 0.762556 0.127096 -0.261013 1.306558 0.218973 -1.905802 10.182227 1.552078 -2.892446 18.840907 -1.125998 -2.812073 -5.805951 -0.536526 4.241591 16.507904 12.681776 28.135243 -9.449396 -30.054184 116.193797 -70.349032 -160.702973 2.032655 5.146851 -15.128894 -5.797060 15.855350 -15.861579 -30.835375 -1.416879 29.563565 -54.705601 -74.445963 102.286358 11.378364 -2.515801 13.390874 -16.529658 -63.071218 9.595841 -84.834685 80.447372 -92.962067 -3.973371 -9.735335 5.873806 0.271364 -0.839080 0.134270 16.240117 -61.104459 -12.920037 24.658765 84.183650 31.067798 -3.530916 -10.953273 1.591274 0.185960 0.439053 0.076877
-103.735715 51.687593 -39.720378 177.483956 -19.220760 -0.057342 -2.118488 11.080593 1.081095 -0.145767 0.764539 0.124876 -0.265727 1.304804 0.221431 -1.903675 10.182874 1.552877 -2.839697 18.846588 -1.127778 -2.722556 -5.800131 -0.556773 4.190121 16.534154 12.635780 28.094767 -9.389176 -30.035340 115.227601 -70.120673 -159.614565 2.266761 5.300906 -15.425527 -5.805014 15.840631 -15.863269 -30.850853 -1.376109 29.536925 -54.506043 -74.368740 102.103328 11.323659 -2.253141 13.735396 -16.548115 -63.090635 9.661049 -84.767112 80.448303 -92.893280 -3.949088 -9.771688 5.877659 0.244977 -0.794234 0.118328 16.250274 -61.133703 -12.891227 24.685621 84.177134 31.098207 -3.508462 -10.945427 1.588904 0.167429 0.431962 0.067684
-103.734602 51.688079 -39.717512 177.477525 -19.225458 -0.057253 -2.119550 11.083518 1.084630 -0.143015 0.763262 0.124891 -0.268777 1.306565 0.221757 -1.904860 10.183371 1.555219 -2.817570 18.848578 -1.134677 -2.602039 -5.796024 -0.586233 4.182891 16.542172 12.617378 28.023563 -9.293999 -30.034980 114.392394 -69.889523 -158.627872 2.475817 5.410405 -15.648424 -5.811296 15.822896 -15.867291 -30.883783 -1.339421 29.509633 -54.321052 -74.293409 101.931070 11.268384 -1.991425 14.068107 -16.550939 -63.084836 9.668482 -84.738796 80.450104 -92.866650 -3.949699 -9.772158 5.882049 0.246859 -0.789994 0.110157 16.227547 -61.130287 -12.870580 24.695076 84.171740 31.106627 -3.505841 -10.946887 1.582724 0.170501 0.434625 0.066368
-103.732934 51.688625 -39.714209 177.461590 -19.230344 -0.055863 -2.107214 11.087745 1.089374 -0.150555 0.763055 0.126098 -0.266371 1.305696 0.221826 -1.902564 10.185494 1.554077 -2.748539 18.852484 -1.133037 -2.530502 -5.796357 -0.602084 4.134111 16.564366 12.572289 28.003486 -9.195972 -30.026028 113.715524 -69.663805 -157.773828 2.651707 5.477666 -15.792015 -5.819992 15.803800 -15.866749 -30.936251 -1.305730 29.484069 -54.144889 -74.237639 101.758418 11.218338 -1.748485 14.381192 -16.543056 -63.078995 9.674916 -84.704455 80.451018 -92.827280 -3.956513 -9.773534 5.881406 0.247810 -0.785671 0.106125 16.195525 -61.126703 -12.837397 24.708583 84.164882 31.116835 -3.496404 -10.952109 1.575153 0.169283 0.438332 0.065178
-103.730989 51.689066 -39.710180 177.460241 -19.232587 -0.059642 -2.106336 11.089086 1.095387 -0.166527 0.757816 0.128216 -0.261678 1.309175 0.218470 -1.897566 10.188894 1.553843 -2.629234 18.855162 -1.127256 -2.510324 -5.797428 -0.603417 4.042315 16.603023 12.494328 28.041155 -9.102239 -30.008201 113.197536 -69.452364 -157.051854 2.785134 5.506421 -15.844656 -5.828125 15.782567 -15.866844 -31.002584 -1.273876 29.460816 -53.984779 -74.204135 101.640024 11.192773 -1.524912 14.608844 -16.561901 -63.074052 9.692081 -84.662302 80.452540 -92.783887 -3.962179 -9.774272 5.877929 0.252867 -0.782448 0.105494 16.174518 -61.125347 -12.823446 24.700589 84.157817 31.114912 -3.492373 -10.952124 1.567484 0.170455 0.441915 0.064223
